<svg xmlns="http://www.w3.org/2000/svg" style="enable-background:new 0 0 508 508;" viewBox="17.34 45.21 458.59 413.25">
  <g>
    <path style="fill:#FFFFFF;" d="M 308.298 351.466 L 184.098 351.466 C 197.298 412.366 221.898 453.666 246.198 453.666 C 270.498 453.666 295.098 412.366 308.298 351.466 Z"/>
    <path style="fill:#FFFFFF;" d="M 70.398 351.466 C 96.598 397.966 140.198 431.566 190.998 445.966 C 175.598 423.466 163.298 391.266 155.298 351.466 L 70.398 351.466 Z"/>
    <path style="fill:#FFFFFF;" d="M 421.998 351.466 L 337.098 351.466 C 329.098 391.266 316.698 423.466 301.398 445.966 C 352.198 431.666 395.798 397.966 421.998 351.466 Z"/>
    <path style="fill:#FFFFFF;" d="M 421.498 153.066 C 395.198 106.666 351.898 73.066 301.498 58.666 C 316.798 81.066 329.198 113.366 337.098 153.066 L 421.498 153.066 Z"/>
    <path style="fill:#FFFFFF;" d="M 155.298 153.066 C 163.298 113.366 175.598 81.166 190.998 58.666 C 140.598 73.066 97.198 106.666 70.998 153.066 L 155.298 153.066 Z"/>
    <path style="fill:#FFFFFF;" d="M 471.998 309.166 L 471.998 195.366 C 471.998 187.566 465.698 181.266 457.898 181.266 L 34.498 181.266 C 26.698 181.266 20.398 187.566 20.398 195.366 L 20.398 309.166 C 20.398 316.966 26.698 323.266 34.498 323.266 L 457.798 323.266 C 465.598 323.266 471.998 316.966 471.998 309.166 Z"/>
    <path style="fill:#FFFFFF;" d="M 246.198 50.866 C 221.898 50.866 197.298 92.166 184.098 153.066 L 308.298 153.066 C 295.098 92.166 270.498 50.866 246.198 50.866 Z"/>
  </g>
  <path style="fill: rgb(45, 52, 54);" d="M 247.498 434.302 C 145.27 434.302 62.029 351.943 62.029 250.564 C 62.029 149.182 145.27 66.929 247.498 66.929 C 349.726 66.929 432.968 149.289 432.968 250.668 C 432.968 352.05 349.726 434.302 247.498 434.302 Z"/>
  <rect x="38.195" y="183.459" style="fill: rgb(108, 92, 231);" width="412.438" height="135.88"/>
  <g style="" transform="matrix(0.90273, 0, 0, 0.899944, 25.139933, 24.9806)">
    <path style="fill: rgb(0, 206, 201);" d="M 457.057 152.874 L 452.357 152.874 C 414.157 73.374 334.057 22.474 245.357 22.474 C 156.657 22.474 76.457 73.374 38.357 152.874 L 33.657 152.874 C 10.357 152.874 -8.643 171.774 -8.643 195.174 L -8.643 308.974 C -8.643 332.274 10.357 351.274 33.657 351.274 L 37.857 351.274 C 75.857 430.774 156.257 481.674 245.357 481.674 C 334.557 481.674 414.857 430.774 452.857 351.274 L 457.057 351.274 C 480.357 351.274 499.357 332.274 499.357 308.974 L 499.357 195.174 C 499.357 171.774 480.357 152.874 457.057 152.874 Z M 420.657 152.874 L 336.257 152.874 C 328.257 113.174 315.957 80.974 300.657 58.474 C 351.057 72.774 394.357 106.474 420.657 152.874 Z M 245.357 50.674 C 269.657 50.674 294.257 91.974 307.457 152.874 L 183.257 152.874 C 196.457 91.974 221.057 50.674 245.357 50.674 Z M 190.057 58.474 C 174.757 80.874 162.357 113.174 154.357 152.874 L 70.057 152.874 C 96.357 106.474 139.657 72.774 190.057 58.474 Z M 69.557 351.274 L 154.457 351.274 C 162.457 391.074 174.857 423.274 190.157 445.774 C 139.357 431.474 95.757 397.774 69.557 351.274 Z M 245.357 453.474 C 221.057 453.474 196.457 412.174 183.257 351.274 L 307.457 351.274 C 294.257 412.174 269.657 453.474 245.357 453.474 Z M 300.557 445.774 C 315.957 423.274 328.257 391.074 336.257 351.274 L 421.157 351.274 C 394.957 397.774 351.357 431.474 300.557 445.774 Z M 471.157 308.974 C 471.157 316.774 464.857 323.074 457.057 323.074 L 33.657 323.074 C 25.857 323.074 19.557 316.774 19.557 308.974 L 19.557 195.174 C 19.557 187.374 25.857 181.074 33.657 181.074 L 456.957 181.074 C 464.757 181.074 471.057 187.374 471.057 195.174 L 471.057 308.974 L 471.157 308.974 Z"/>
    <polygon style="fill: rgb(255, 255, 255);" points="137.357 263.774 100.457 213.374 84.757 213.374 84.757 291.674 101.557 291.674 101.557 242.574 137.357 291.674 154.057 291.674 154.057 213.374 137.357 213.374"/>
    <polygon style="fill: rgb(255, 255, 255);" points="189.257 259.974 222.957 259.974 222.957 245.074 189.257 245.074 189.257 228.974 226.657 228.974 226.657 213.374 172.557 213.374 172.557 291.674 227.857 291.674 227.857 276.174 189.257 276.174"/>
    <polygon style="fill: rgb(255, 255, 255);" points="310.257 258.374 297.057 213.374 279.457 213.374 266.157 258.374 251.357 213.374 233.257 213.374 259.457 291.674 271.857 291.674 288.157 237.274 304.657 291.674 317.057 291.674 343.257 213.374 325.157 213.374"/>
    <path style="fill: rgb(255, 255, 255);" d="M 383.357 244.674 C 375.157 242.774 366.857 240.874 366.757 234.474 C 367.257 229.074 370.657 226.974 375.757 226.874 C 382.657 226.874 389.457 229.474 395.957 234.574 L 404.457 221.774 C 396.457 215.574 387.457 211.374 376.357 211.474 C 363.857 210.874 349.357 219.074 349.557 234.674 C 348.557 250.074 359.957 256.074 374.757 259.474 C 383.957 261.474 389.257 264.574 388.657 269.274 C 388.757 274.474 384.057 276.974 378.757 276.974 C 371.857 276.974 364.457 273.274 356.357 265.874 L 346.357 278.674 C 355.857 287.874 366.557 292.474 378.457 292.474 C 393.557 293.174 406.057 283.674 405.957 268.874 C 406.157 255.374 397.657 248.074 383.357 244.674 Z"/>
  </g>
  <g/>
  <g/>
  <g/>
  <g/>
  <g/>
  <g/>
  <g/>
  <g/>
  <g/>
  <g/>
  <g/>
  <g/>
  <g/>
  <g/>
  <g/>
</svg>